<svg xmlns="http://www.w3.org/2000/svg" viewBox="0 0 24 24" fill="none" stroke="currentColor" stroke-width="1.75" stroke-linecap="round" stroke-linejoin="round">
  <!-- Wellness: balanced abstract form suggesting harmony -->
  <path d="M12 4c-1 0-2 .5-2 1.5v3" stroke-width="1.75"/>
  <path d="M12 8.5c0 1.5 1.5 2.5 3 2.5s3-1 3-2.5" stroke-width="1.75"/>
  <path d="M12 8.5c-1.5 0-3-1-3-2.5S10.5 6 12 6s3 1 3 2.5" stroke-width="1.5"/>
  <!-- Lower balance -->
  <path d="M12 15.5c0-1.5 1.5-2.5 3-2.5s3 1 3 2.5" stroke-width="1.75"/>
  <path d="M12 15.5c1.5 0 3-1 3-2.5S13.5 13 12 13s-3 1-3 2.5" stroke-width="1.5"/>
  <path d="M12 15.5c0 1 .5 1.5 1.5 1.5v3c0 1-.5 1.5-1.5 1.5" stroke-width="1.75"/>
  <!-- Center connection -->
  <path d="M12 11v4.5" stroke-width="1.2"/>
</svg>